# xmcd
# Track frame offsets:
# 150
# 9922
# 20435
# 39972
# 50521
# 65671
# 83727
# 98692
# 111715
# 126756
# 140620
# 158257
# 170508
# 188548
# 204074
#
# Disc length: 2903 seconds
# Revision: 0
# Processed by: cddbd v1.5.1PL0 Copyright (c) Steve Scherf et al.
# Submitted via: VisiTrax 2.9.10.228 - For more info visit www.synapsa.com
#
DISCID=b60b550f
DTITLE=Christmas-Country - CB60307
DYEAR=1900
DGENRE=Karaoke
TTITLE0=Christmas/Country - Here Comes Santa Claus
TTITLE1=Christmas/Country - Winter Wonderland
TTITLE2=Christmas/Country - I'll Be Home For Christmas
TTITLE3=Christmas/Country - Frosty The Snowman
TTITLE4=Christmas/Country - Little Drummer Boy, The
TTITLE5=Christmas/Country - O' Come All Ye Faithful
TTITLE6=Christmas/Country - Silver Bells
TTITLE7=Christmas/Country - It's Beginning To Look A Lot Like Christmas
TTITLE8=Christmas/Country - Silent Night
TTITLE9=Christmas/Country - Marvelous Little Toy
TTITLE10=Christmas/Country - Blue Christmas
TTITLE11=Christmas/Country - Santa Claus Is Coming To Town
TTITLE12=Christmas/Country - Mary's Boy Child
TTITLE13=Christmas/Country - White Christmas
TTITLE14=Christmas/Country - Rudolph The Red-Nosed Reindeer
EXTD=
EXTT0=
EXTT1=
EXTT2=
EXTT3=
EXTT4=
EXTT5=
EXTT6=
EXTT7=
EXTT8=
EXTT9=
EXTT10=
EXTT11=
EXTT12=
EXTT13=
EXTT14=
PLAYORDER=
